<svg xmlns="http://www.w3.org/2000/svg" viewBox="0 0 256 256" role="img" aria-label="Эмблема Директората Эгида">
  <defs>
    <linearGradient id="steel" x1="0" y1="0" x2="1" y2="1"><stop stop-color="#f1f5f7"/><stop offset=".42" stop-color="#a9b7c2"/><stop offset="1" stop-color="#344653"/></linearGradient>
    <linearGradient id="amber" x1="0" y1="0" x2="0" y2="1"><stop stop-color="#ffd98d"/><stop offset="1" stop-color="#c57424"/></linearGradient>
    <filter id="glow"><feGaussianBlur stdDeviation="3" result="b"/><feMerge><feMergeNode in="b"/><feMergeNode in="SourceGraphic"/></feMerge></filter>
  </defs>
  <path d="M128 10 226 48v74c0 60-38 104-98 124C68 226 30 182 30 122V48Z" fill="#111f2a" stroke="url(#steel)" stroke-width="8"/>
  <path d="M128 30 204 60v60c0 46-28 82-76 101-48-19-76-55-76-101V60Z" fill="#1a2833" stroke="#3dd4d0" stroke-opacity=".45" stroke-width="3"/>
  <path d="M128 46 155 95l55 10-39 39 8 55-51-25-51 25 8-55-39-39 55-10Z" fill="none" stroke="url(#amber)" stroke-width="13" stroke-linejoin="round"/>
  <circle cx="128" cy="128" r="28" fill="#0e1c25" stroke="#3dd4d0" stroke-width="6" filter="url(#glow)"/>
  <path d="M128 92v72M92 128h72" stroke="#d9e1e5" stroke-width="7" stroke-linecap="round"/>
</svg>
