<svg xmlns="http://www.w3.org/2000/svg" viewBox="0 0 256 256" role="img" aria-label="Эмблема Роя Вейра">
  <defs>
    <radialGradient id="core" cx="44%" cy="38%" r="68%"><stop stop-color="#fff1a0"/><stop offset=".32" stop-color="#a8e85e"/><stop offset="1" stop-color="#3c5f2b"/></radialGradient>
    <linearGradient id="shell" x1="0" y1="0" x2="1" y2="1"><stop stop-color="#c8be91"/><stop offset=".45" stop-color="#4a5534"/><stop offset="1" stop-color="#20291e"/></linearGradient>
    <filter id="glow"><feGaussianBlur stdDeviation="4" result="b"/><feMerge><feMergeNode in="b"/><feMergeNode in="SourceGraphic"/></feMerge></filter>
  </defs>
  <path d="M128 13c47 9 89 46 103 91-10 60-47 111-103 139C72 215 35 164 25 104 39 59 81 22 128 13Z" fill="#11190f" stroke="url(#shell)" stroke-width="8"/>
  <path d="M128 38c34 8 66 34 78 69-12 41-39 77-78 99-39-22-66-58-78-99 12-35 44-61 78-69Z" fill="#263322" stroke="#a8e85e" stroke-opacity=".5" stroke-width="3"/>
  <path d="M55 109c23-35 47-51 73-51s50 16 73 51c-22 44-46 66-73 66s-51-22-73-66Z" fill="url(#shell)" stroke="#e07865" stroke-width="5"/>
  <ellipse cx="128" cy="112" rx="46" ry="39" fill="#182218" stroke="#c8be91" stroke-width="5"/>
  <ellipse cx="128" cy="112" rx="24" ry="30" fill="url(#core)" filter="url(#glow)"/>
  <path d="M49 91 24 72M207 91l25-19M63 155l-23 25M193 155l23 25" stroke="#c8be91" stroke-width="7" stroke-linecap="round"/>
  <path d="M128 175v42" stroke="#a8e85e" stroke-width="6" stroke-linecap="round"/>
</svg>
