<svg xmlns="http://www.w3.org/2000/svg" viewBox="0 0 768 256" role="img" aria-label="Оборона вертикального среза Директората Эгида">
  <defs>
    <linearGradient id="steel" x1="0" y1="0" x2="1" y2="1"><stop stop-color="#eef3f5"/><stop offset=".4" stop-color="#a9b7c2"/><stop offset="1" stop-color="#263946"/></linearGradient>
    <linearGradient id="dark" x1="0" y1="0" x2="1" y2="1"><stop stop-color="#344955"/><stop offset="1" stop-color="#101a22"/></linearGradient>
    <filter id="glow"><feGaussianBlur stdDeviation="4" result="b"/><feMerge><feMergeNode in="b"/><feMergeNode in="SourceGraphic"/></feMerge></filter>
    <filter id="shadow"><feDropShadow dx="0" dy="7" stdDeviation="7" flood-color="#000" flood-opacity=".68"/></filter>
  </defs>
  <rect width="768" height="256" fill="#02050a"/>
  <g fill="none" stroke="#3e718e" stroke-opacity=".22"><path d="M256 0v256M512 0v256"/></g>

  <g id="defense-gun" transform="translate(128 128)" filter="url(#shadow)">
    <ellipse cy="73" rx="94" ry="20" fill="#000" opacity=".5"/>
    <path d="M-84 54-62-18-25-51h50l37 33 22 72-38 31h-92Z" fill="url(#dark)" stroke="#718895" stroke-width="4"/>
    <rect x="-43" y="-33" width="86" height="61" rx="11" fill="url(#steel)" stroke="#d9e1e5" stroke-width="3"/>
    <path d="M-13-35v-55h26v55M0-84 83-122l8 17-80 49" fill="url(#steel)" stroke="#d9e1e5" stroke-width="3"/>
    <circle cy="-3" r="14" fill="#3dd4d0" filter="url(#glow)"/>
    <path d="M-67 51h134" stroke="#e7a847" stroke-width="5"/>
  </g>

  <g id="defense-missile" transform="translate(384 128)" filter="url(#shadow)">
    <ellipse cy="73" rx="94" ry="20" fill="#000" opacity=".5"/>
    <path d="M-84 54-62-18-25-51h50l37 33 22 72-38 31h-92Z" fill="url(#dark)" stroke="#718895" stroke-width="4"/>
    <path d="M-60 25-47-45h36l11 70Zm60 0 11-70h36l13 70Z" fill="url(#steel)" stroke="#d9e1e5" stroke-width="4"/>
    <path d="M-29-45-11-83 7-45M29-45 47-83 65-45" fill="#c85b45" stroke="#f2ad8e" stroke-width="3"/>
    <circle cy="42" r="13" fill="#3dd4d0" filter="url(#glow)"/>
    <path d="M-68 51h136" stroke="#e7a847" stroke-width="5"/>
  </g>

  <g id="defense-shield" transform="translate(640 128)" filter="url(#shadow)">
    <ellipse cy="73" rx="94" ry="20" fill="#000" opacity=".5"/>
    <path d="M-84 54-62-18-25-51h50l37 33 22 72-38 31h-92Z" fill="url(#dark)" stroke="#718895" stroke-width="4"/>
    <circle cy="-3" r="54" fill="#132630" stroke="#d9e1e5" stroke-width="5"/>
    <circle cy="-3" r="34" fill="none" stroke="#3dd4d0" stroke-width="7" filter="url(#glow)"/>
    <path d="M0-57V-94M-54-3h-35M54-3h35M-38-41l-25-25M38-41l25-25" stroke="#e7a847" stroke-width="5" stroke-linecap="round"/>
    <circle cy="-3" r="13" fill="#eaf7ff" stroke="#3dd4d0" stroke-width="4"/>
  </g>
</svg>
