<svg xmlns="http://www.w3.org/2000/svg" viewBox="0 0 1536 1024" role="img" aria-label="Корабли вертикального среза Директората Эгида">
  <defs>
    <linearGradient id="steel" x1="0" y1="0" x2="1" y2="1"><stop stop-color="#f2f6f7"/><stop offset=".34" stop-color="#a9b7c2"/><stop offset=".7" stop-color="#536774"/><stop offset="1" stop-color="#172631"/></linearGradient>
    <linearGradient id="dark" x1="0" y1="0" x2="1" y2="1"><stop stop-color="#364b58"/><stop offset="1" stop-color="#101a22"/></linearGradient>
    <filter id="glow"><feGaussianBlur stdDeviation="7" result="b"/><feMerge><feMergeNode in="b"/><feMergeNode in="SourceGraphic"/></feMerge></filter>
    <filter id="shadow"><feDropShadow dx="0" dy="12" stdDeviation="12" flood-color="#000" flood-opacity=".72"/></filter>
    <pattern id="grid" width="48" height="48" patternUnits="userSpaceOnUse"><path d="M48 0H0V48" fill="none" stroke="#3dd4d0" stroke-opacity=".035"/></pattern>
  </defs>
  <rect width="1536" height="1024" fill="#02050a"/><rect width="1536" height="1024" fill="url(#grid)"/>
  <g fill="none" stroke="#3e718e" stroke-opacity=".2"><path d="M512 0v1024M1024 0v1024M0 512h1536"/></g>

  <!-- scout -->
  <g id="ship-scout" transform="translate(256 256)" filter="url(#shadow)">
    <path d="m-202 28 72-84 127-36 155 48 72 70-76 22-73 72-112-22-84 40Z" fill="url(#dark)" stroke="#8299a8" stroke-width="6"/>
    <path d="M-118-44-3-88 96-48 47 17-49 35Z" fill="url(#steel)" stroke="#eaf0f3" stroke-width="5"/>
    <path d="M-8-68 31-60 52-29 14-3-38-18Z" fill="#071820" stroke="#3dd4d0" stroke-width="6"/>
    <path d="M-196 23-92 17M150-42 69 3M-36 98l30-66" stroke="#e7a847" stroke-width="7"/>
    <ellipse cx="-159" cy="9" rx="29" ry="14" fill="#3dd4d0" filter="url(#glow)"/>
  </g>

  <!-- small cargo -->
  <g id="ship-cargo" transform="translate(768 256)" filter="url(#shadow)">
    <path d="m-226 24 77-88 135-46 170 55 88 75-80 27-72 78-137-16-96 42Z" fill="url(#dark)" stroke="#8299a8" stroke-width="6"/>
    <rect x="-107" y="-69" width="103" height="127" rx="12" fill="url(#steel)" stroke="#eaf0f3" stroke-width="5" transform="rotate(-11)"/>
    <rect x="15" y="-55" width="91" height="111" rx="11" fill="#768895" stroke="#d9e1e5" stroke-width="5" transform="rotate(8)"/>
    <path d="M-11-77 54-61 83-27 36 0-39-17Z" fill="#071820" stroke="#3dd4d0" stroke-width="6"/>
    <path d="M-177-25-225-72M167-31l58-46M-128 105-89 44M132 102 91 43" stroke="#e7a847" stroke-width="8"/>
    <ellipse cx="-190" cy="12" rx="34" ry="16" fill="#3dd4d0" filter="url(#glow)"/>
  </g>

  <!-- fighter -->
  <g id="ship-fighter" transform="translate(1280 256)" filter="url(#shadow)">
    <path d="m-207 29 79-97 137-43 159 62 62 70-82 22-66 78-120-20-86 48Z" fill="url(#dark)" stroke="#8299a8" stroke-width="6"/>
    <path d="M-116-55 8-104 112-52 56 25-52 42Z" fill="url(#steel)" stroke="#eef3f5" stroke-width="5"/>
    <path d="M-9-84 42-71 69-32 19-4-47-23Z" fill="#071820" stroke="#3dd4d0" stroke-width="6"/>
    <path d="M-161-47-230-91M133-49l82-42M-129 91-190 135M112 91l66 43" stroke="#e7a847" stroke-width="8"/>
    <path d="M20-102 42-154h20l15 56M84-51l99-30 7 19-96 47" fill="url(#steel)" stroke="#d9e1e5" stroke-width="4"/>
    <ellipse cx="-167" cy="12" rx="32" ry="15" fill="#3dd4d0" filter="url(#glow)"/>
  </g>

  <!-- frigate -->
  <g id="ship-frigate" transform="translate(256 768)" filter="url(#shadow)">
    <path d="m-244 31 88-112 165-49 194 66 68 91-99 25-77 91-145-24-104 52Z" fill="url(#dark)" stroke="#8299a8" stroke-width="7"/>
    <path d="M-148-68 10-125 145-62 78 31-51 49Z" fill="url(#steel)" stroke="#eef3f5" stroke-width="5"/>
    <path d="M-22-103 42-87 75-39 19-7-56-27Z" fill="#071820" stroke="#3dd4d0" stroke-width="7"/>
    <path d="M-202-48-111 8M174-40 91 5M-135 116-89 35M146 108 96 30" stroke="#e7a847" stroke-width="9"/>
    <path d="M-24-123 1-188h27l21 74M90-69l113-32 8 20-111 52" fill="url(#steel)" stroke="#d9e1e5" stroke-width="5"/>
    <ellipse cx="-201" cy="15" rx="40" ry="18" fill="#3dd4d0" filter="url(#glow)"/>
  </g>

  <!-- colony ship -->
  <g id="ship-colony" transform="translate(768 768)" filter="url(#shadow)">
    <path d="m-246 30 88-110 165-52 201 69 74 91-99 27-79 88-151-22-104 53Z" fill="url(#dark)" stroke="#8299a8" stroke-width="7"/>
    <path d="M-148-68 5-126 137-66 78 27-48 49Z" fill="url(#steel)" stroke="#eef3f5" stroke-width="5"/>
    <ellipse cx="33" cy="4" rx="74" ry="58" fill="#283d47" stroke="#d9e1e5" stroke-width="6"/>
    <path d="M-21-104 43-86 74-39 21-8-55-27Z" fill="#071820" stroke="#3dd4d0" stroke-width="7"/>
    <path d="M-203-46-111 9M180-39 102 8M-137 116-89 36M151 108 103 33" stroke="#e7a847" stroke-width="9"/>
    <circle cx="36" cy="7" r="33" fill="#5b7869" stroke="#a7c6b4" stroke-width="5"/>
    <path d="M36-26v66M3 7h66" stroke="#3dd4d0" stroke-width="5" filter="url(#glow)"/>
    <ellipse cx="-202" cy="16" rx="41" ry="18" fill="#3dd4d0" filter="url(#glow)"/>
  </g>

  <!-- recycler -->
  <g id="ship-recycler" transform="translate(1280 768)" filter="url(#shadow)">
    <path d="m-238 31 84-107 158-50 193 64 72 89-94 26-77 88-145-22-101 50Z" fill="url(#dark)" stroke="#8299a8" stroke-width="7"/>
    <path d="M-142-65 7-119 135-61 73 27-49 46Z" fill="url(#steel)" stroke="#eef3f5" stroke-width="5"/>
    <path d="M-21-99 39-84 68-38 17-7-53-25Z" fill="#071820" stroke="#3dd4d0" stroke-width="7"/>
    <path d="M-200-45-112 8M169-37 91 7M-132 111-87 34M143 105 94 30" stroke="#e7a847" stroke-width="9"/>
    <path d="M125-51 229-114M117-16l121-18M104 24l112 34" stroke="#d9e1e5" stroke-width="10" stroke-linecap="round"/>
    <circle cx="118" cy="-17" r="17" fill="#3dd4d0" filter="url(#glow)"/>
    <ellipse cx="-196" cy="15" rx="39" ry="18" fill="#3dd4d0" filter="url(#glow)"/>
  </g>
</svg>
