<svg xmlns="http://www.w3.org/2000/svg" viewBox="0 0 768 512" role="img" aria-label="Технологии вертикального среза Директората Эгида">
  <defs>
    <linearGradient id="plate" x1="0" y1="0" x2="1" y2="1"><stop stop-color="#253b49"/><stop offset="1" stop-color="#09131c"/></linearGradient>
    <linearGradient id="steel" x1="0" y1="0" x2="1" y2="1"><stop stop-color="#eaf0f3"/><stop offset=".45" stop-color="#a9b7c2"/><stop offset="1" stop-color="#40525f"/></linearGradient>
    <filter id="glow"><feGaussianBlur stdDeviation="3" result="b"/><feMerge><feMergeNode in="b"/><feMergeNode in="SourceGraphic"/></feMerge></filter>
  </defs>
  <rect width="768" height="512" fill="#02050a"/>
  <g fill="none" stroke="#3e718e" stroke-opacity=".22"><path d="M256 0v512M512 0v512M0 256h768"/></g>

  <g id="tech-construction" transform="translate(128 128)">
    <path d="M0-92 80-46v92L0 92-80 46v-92Z" fill="url(#plate)" stroke="#3e718e" stroke-width="4"/>
    <path d="M-51 46v-61l51-31 51 31v61L0 75Z" fill="none" stroke="url(#steel)" stroke-width="7"/>
    <path d="M-29 47v-36L0-7l29 18v36M-52-15 0 17l52-32" fill="none" stroke="#e7a847" stroke-width="6"/>
    <circle cy="-47" r="9" fill="#3dd4d0" filter="url(#glow)"/>
  </g>

  <g id="tech-energy" transform="translate(384 128)">
    <path d="M0-92 80-46v92L0 92-80 46v-92Z" fill="url(#plate)" stroke="#3e718e" stroke-width="4"/>
    <circle r="54" fill="#132630" stroke="url(#steel)" stroke-width="6"/>
    <path d="M12-61-36 10h34l-10 51 50-79H8Z" fill="#e7a847" stroke="#fff0b4" stroke-width="4" stroke-linejoin="round" filter="url(#glow)"/>
  </g>

  <g id="tech-propulsion" transform="translate(640 128)">
    <path d="M0-92 80-46v92L0 92-80 46v-92Z" fill="url(#plate)" stroke="#3e718e" stroke-width="4"/>
    <path d="M-41-46 24-64 53-22 21 22-42 38-60-4Z" fill="url(#steel)" stroke="#d9e1e5" stroke-width="5"/>
    <path d="M-57 1-91-21M-52 24-91 34M42-23 83-50" stroke="#e7a847" stroke-width="7" stroke-linecap="round"/>
    <ellipse cx="-55" cy="-2" rx="22" ry="12" fill="#3dd4d0" filter="url(#glow)"/>
  </g>

  <g id="tech-sensors" transform="translate(128 384)">
    <path d="M0-92 80-46v92L0 92-80 46v-92Z" fill="url(#plate)" stroke="#3e718e" stroke-width="4"/>
    <circle r="15" fill="#eaf7ff" stroke="#3dd4d0" stroke-width="5" filter="url(#glow)"/>
    <path d="M0-30c30 0 54 24 54 54M0-52c42 0 76 34 76 76M0 30c-30 0-54-24-54-54M0 52c-42 0-76-34-76-76" fill="none" stroke="#3dd4d0" stroke-width="7" stroke-linecap="round"/>
  </g>

  <g id="tech-armor" transform="translate(384 384)">
    <path d="M0-92 80-46v92L0 92-80 46v-92Z" fill="url(#plate)" stroke="#3e718e" stroke-width="4"/>
    <path d="M0-65 54-44v41C54 34 34 61 0 73-34 61-54 34-54-3v-41Z" fill="url(#steel)" stroke="#eaf0f3" stroke-width="5"/>
    <path d="M0-44v95M-36-24 0-3l36-21" fill="none" stroke="#e7a847" stroke-width="6"/>
  </g>

  <g id="tech-weapons" transform="translate(640 384)">
    <path d="M0-92 80-46v92L0 92-80 46v-92Z" fill="url(#plate)" stroke="#3e718e" stroke-width="4"/>
    <circle r="52" fill="#111f29" stroke="url(#steel)" stroke-width="6"/>
    <circle r="15" fill="#c85b45" stroke="#ffc0a5" stroke-width="4" filter="url(#glow)"/>
    <path d="M0-82v46M0 36v46M-82 0h46M36 0h46M-58-58l33 33M25 25l33 33M58-58 25-25M-25 25l-33 33" stroke="#e7a847" stroke-width="7" stroke-linecap="round"/>
  </g>
</svg>
